<svg xmlns="http://www.w3.org/2000/svg" viewBox="0 0 64 64" width="64" height="64" role="img" aria-label="Your Path">
  <defs>
    <linearGradient id="yp" x1="0" y1="0" x2="1" y2="1">
      <stop offset="0%" stop-color="#ff2fd0"/>
      <stop offset="52%" stop-color="#c429f9"/>
      <stop offset="100%" stop-color="#6d5cff"/>
    </linearGradient>
    <filter id="glow" x="-50%" y="-50%" width="200%" height="200%">
      <feGaussianBlur stdDeviation="2.2" result="b"/>
      <feMerge>
        <feMergeNode in="b"/>
        <feMergeNode in="b"/>
        <feMergeNode in="SourceGraphic"/>
      </feMerge>
    </filter>
  </defs>

  <rect width="64" height="64" rx="15" fill="#140b26"/>
  <rect x="1.6" y="1.6" width="60.8" height="60.8" rx="13.6" fill="none"
        stroke="url(#yp)" stroke-width="2.2" opacity="0.9"/>

  <!-- "YP" drawn as paths, not text: a font-based favicon shifts shape or
       overflows wherever the requested family is unavailable. -->
  <g fill="url(#yp)" filter="url(#glow)">
    <!-- Y -->
    <path d="M13 18h6.6l4.5 8.2 4.5-8.2H35l-8 14.3V46h-5.8V32.3L13 18z"/>
    <!-- P -->
    <path d="M37 18h10.4c5.6 0 9.3 3.4 9.3 8.7 0 5.4-3.7 8.9-9.3 8.9h-4.6V46H37V18zm5.8 4.9v7.9h4.1c2.3 0 3.8-1.5 3.8-3.9 0-2.5-1.5-4-3.8-4h-4.1z"/>
  </g>
</svg>
